<svg xmlns="http://www.w3.org/2000/svg" viewBox="0 0 735 275" role="img" aria-label="KYMA Mail logo">
  <style>
    .primary { fill: var(--logo-primary, currentColor); }
    .accent { fill: var(--logo-accent, #E7C15B); }
  </style>
  <path class="accent" fill-rule="evenodd" d="M 215.0 8.0 L 214.0 7.0 L 206.0 8.0 L 182.0 16.0 L 179.0 18.0 L 174.0 19.0 L 172.0 21.0 L 160.0 25.0 L 141.0 35.0 L 130.0 49.0 L 125.0 59.0 L 123.0 61.0 L 117.0 75.0 L 116.0 74.0 L 116.0 70.0 L 117.0 69.0 L 117.0 64.0 L 118.0 63.0 L 121.0 48.0 L 114.0 52.0 L 101.0 63.0 L 86.0 81.0 L 76.0 100.0 L 73.0 109.0 L 74.0 110.0 L 73.0 112.0 L 73.0 126.0 L 74.0 129.0 L 149.0 62.0 L 155.0 58.0 L 179.0 37.0 L 181.0 38.0 L 104.0 113.0 L 104.0 114.0 L 81.0 136.0 L 81.0 138.0 L 90.0 143.0 L 92.0 143.0 L 94.0 145.0 L 95.0 144.0 L 111.0 143.0 L 115.0 141.0 L 125.0 139.0 L 147.0 128.0 L 167.0 112.0 L 168.0 110.0 L 159.0 111.0 L 158.0 112.0 L 152.0 112.0 L 151.0 113.0 L 127.0 113.0 L 126.0 112.0 L 135.0 109.0 L 139.0 109.0 L 140.0 108.0 L 151.0 106.0 L 165.0 100.0 L 167.0 100.0 L 183.0 91.0 L 189.0 85.0 L 198.0 68.0 L 174.0 76.0 L 170.0 76.0 L 169.0 77.0 L 164.0 77.0 L 163.0 76.0 L 187.0 64.0 L 196.0 58.0 L 206.0 49.0 L 209.0 42.0 L 210.0 34.0 L 212.0 29.0 L 213.0 18.0 L 214.0 17.0 L 214.0 10.0 Z"/>
  <path class="primary" fill-rule="evenodd" d="M 684.0 207.0 L 681.0 210.0 L 681.0 216.0 L 684.0 220.0 L 690.0 221.0 L 693.0 217.0 L 693.0 213.0 L 690.0 208.0 Z M 727.0 194.0 L 723.0 191.0 L 719.0 192.0 L 708.0 205.0 L 699.0 219.0 L 692.0 233.0 L 691.0 238.0 L 688.0 244.0 L 688.0 247.0 L 682.0 257.0 L 674.0 265.0 L 671.0 265.0 L 670.0 264.0 L 670.0 258.0 L 683.0 232.0 L 683.0 223.0 L 681.0 220.0 L 678.0 220.0 L 673.0 226.0 L 662.0 247.0 L 661.0 252.0 L 656.0 260.0 L 652.0 264.0 L 648.0 266.0 L 646.0 264.0 L 646.0 260.0 L 649.0 254.0 L 649.0 252.0 L 661.0 232.0 L 662.0 224.0 L 660.0 219.0 L 658.0 218.0 L 652.0 223.0 L 648.0 219.0 L 640.0 219.0 L 637.0 220.0 L 628.0 226.0 L 622.0 232.0 L 616.0 240.0 L 612.0 248.0 L 612.0 251.0 L 611.0 252.0 L 611.0 263.0 L 612.0 265.0 L 618.0 270.0 L 625.0 270.0 L 630.0 268.0 L 636.0 263.0 L 637.0 266.0 L 640.0 269.0 L 646.0 271.0 L 653.0 270.0 L 660.0 265.0 L 661.0 267.0 L 665.0 270.0 L 675.0 270.0 L 680.0 268.0 L 686.0 263.0 L 690.0 268.0 L 694.0 270.0 L 702.0 270.0 L 711.0 266.0 L 719.0 258.0 L 721.0 254.0 L 721.0 247.0 L 720.0 246.0 L 717.0 246.0 L 711.0 256.0 L 701.0 265.0 L 698.0 265.0 L 696.0 263.0 L 696.0 255.0 L 699.0 245.0 L 714.0 232.0 L 723.0 220.0 L 729.0 206.0 L 729.0 198.0 Z M 645.0 226.0 L 647.0 228.0 L 646.0 233.0 L 639.0 248.0 L 633.0 257.0 L 626.0 264.0 L 623.0 265.0 L 622.0 264.0 L 622.0 257.0 L 627.0 245.0 L 632.0 238.0 Z M 721.0 206.0 L 722.0 208.0 L 717.0 218.0 L 710.0 227.0 L 709.0 226.0 L 710.0 223.0 Z M 622.0 192.0 L 620.0 191.0 L 617.0 191.0 L 605.0 209.0 L 585.0 233.0 L 578.0 243.0 L 577.0 242.0 L 578.0 237.0 L 588.0 207.0 L 588.0 199.0 L 587.0 196.0 L 582.0 191.0 L 579.0 191.0 L 565.0 210.0 L 564.0 213.0 L 548.0 238.0 L 538.0 259.0 L 538.0 267.0 L 541.0 271.0 L 544.0 270.0 L 552.0 253.0 L 554.0 251.0 L 565.0 231.0 L 569.0 226.0 L 570.0 228.0 L 563.0 252.0 L 563.0 263.0 L 564.0 266.0 L 569.0 271.0 L 571.0 271.0 L 589.0 243.0 L 597.0 233.0 L 598.0 236.0 L 593.0 245.0 L 588.0 260.0 L 589.0 268.0 L 592.0 271.0 L 594.0 271.0 L 596.0 268.0 L 600.0 256.0 L 605.0 247.0 L 605.0 245.0 L 625.0 205.0 L 625.0 197.0 Z M 453.0 184.0 L 452.0 189.0 L 448.0 197.0 L 447.0 202.0 L 440.0 218.0 L 436.0 231.0 L 432.0 239.0 L 430.0 247.0 L 478.0 247.0 L 473.0 235.0 L 472.0 230.0 L 468.0 222.0 L 467.0 217.0 L 465.0 214.0 L 464.0 209.0 L 460.0 201.0 L 459.0 196.0 L 457.0 193.0 L 454.0 184.0 Z M 454.0 223.0 L 456.0 226.0 L 460.0 238.0 L 459.0 239.0 L 448.0 239.0 L 447.0 238.0 L 450.0 232.0 L 451.0 227.0 Z M 441.0 168.0 L 437.0 180.0 L 435.0 183.0 L 434.0 188.0 L 430.0 196.0 L 429.0 201.0 L 427.0 204.0 L 426.0 209.0 L 424.0 212.0 L 423.0 217.0 L 416.0 233.0 L 415.0 238.0 L 413.0 241.0 L 412.0 246.0 L 405.0 262.0 L 404.0 267.0 L 402.0 270.0 L 435.0 270.0 L 439.0 261.0 L 468.0 261.0 L 470.0 263.0 L 472.0 270.0 L 505.0 270.0 L 500.0 258.0 L 499.0 253.0 L 497.0 250.0 L 496.0 245.0 L 492.0 237.0 L 491.0 232.0 L 489.0 229.0 L 488.0 224.0 L 484.0 216.0 L 483.0 211.0 L 481.0 208.0 L 480.0 203.0 L 478.0 200.0 L 477.0 195.0 L 473.0 187.0 L 467.0 169.0 L 466.0 168.0 Z M 452.0 180.0 L 456.0 180.0 L 458.0 183.0 L 462.0 196.0 L 466.0 204.0 L 470.0 217.0 L 472.0 220.0 L 478.0 238.0 L 486.0 257.0 L 485.0 258.0 L 483.0 258.0 L 481.0 256.0 L 479.0 250.0 L 428.0 250.0 L 426.0 257.0 L 425.0 258.0 L 422.0 257.0 L 425.0 247.0 L 432.0 231.0 L 433.0 226.0 L 440.0 210.0 L 441.0 205.0 L 448.0 189.0 L 449.0 184.0 Z M 292.0 168.0 L 292.0 270.0 L 325.0 270.0 L 325.0 237.0 L 326.0 236.0 L 345.0 264.0 L 346.0 264.0 L 366.0 235.0 L 367.0 236.0 L 367.0 270.0 L 400.0 270.0 L 400.0 168.0 L 372.0 168.0 L 346.0 206.0 L 343.0 203.0 L 322.0 171.0 L 319.0 168.0 Z M 307.0 181.0 L 308.0 180.0 L 311.0 180.0 L 322.0 197.0 L 325.0 200.0 L 339.0 222.0 L 346.0 231.0 L 376.0 186.0 L 381.0 180.0 L 383.0 180.0 L 384.0 181.0 L 384.0 257.0 L 383.0 258.0 L 380.0 257.0 L 380.0 188.0 L 379.0 188.0 L 346.0 237.0 L 313.0 189.0 L 311.0 188.0 L 311.0 257.0 L 308.0 258.0 L 307.0 257.0 Z M 193.0 168.0 L 225.0 226.0 L 225.0 270.0 L 258.0 270.0 L 258.0 227.0 L 290.0 168.0 L 253.0 168.0 L 242.0 188.0 L 230.0 168.0 Z M 219.0 180.0 L 221.0 180.0 L 223.0 182.0 L 226.0 189.0 L 228.0 191.0 L 232.0 200.0 L 234.0 202.0 L 238.0 211.0 L 242.0 217.0 L 262.0 180.0 L 265.0 180.0 L 266.0 181.0 L 264.0 183.0 L 260.0 192.0 L 258.0 194.0 L 254.0 203.0 L 252.0 205.0 L 248.0 214.0 L 244.0 220.0 L 244.0 257.0 L 243.0 258.0 L 240.0 257.0 L 240.0 221.0 L 236.0 215.0 L 232.0 206.0 L 230.0 204.0 L 225.0 193.0 L 223.0 191.0 L 218.0 181.0 Z M 5.0 7.0 L 5.0 269.0 L 59.0 269.0 L 59.0 181.0 L 72.0 167.0 L 73.0 167.0 L 79.0 174.0 L 94.0 195.0 L 98.0 198.0 L 97.0 199.0 L 101.0 203.0 L 113.0 220.0 L 117.0 224.0 L 151.0 269.0 L 214.0 269.0 L 214.0 267.0 L 125.0 151.0 L 121.0 153.0 L 110.0 155.0 L 110.0 157.0 L 119.0 169.0 L 123.0 173.0 L 138.0 194.0 L 184.0 253.0 L 183.0 254.0 L 159.0 254.0 L 127.0 213.0 L 87.0 159.0 L 83.0 155.0 L 93.0 145.0 L 82.0 140.0 L 80.0 138.0 L 44.0 174.0 L 44.0 253.0 L 42.0 255.0 L 41.0 254.0 L 21.0 254.0 L 20.0 253.0 L 20.0 246.0 L 21.0 245.0 L 21.0 237.0 L 20.0 236.0 L 20.0 23.0 L 21.0 22.0 L 43.0 22.0 L 44.0 23.0 L 44.0 157.0 L 73.0 129.0 L 72.0 126.0 L 72.0 112.0 L 73.0 110.0 L 60.0 122.0 L 59.0 121.0 L 59.0 7.0 Z"/>
</svg>